<svg xmlns="http://www.w3.org/2000/svg" xmlns:xlink="http://www.w3.org/1999/xlink" viewBox="0 0 30 30"><defs><linearGradient y2="12.318" x2="48.41" y1="32.21" x1="48.35" gradientTransform="matrix(.41317 0 0 1.49415 558.94 564.94)" gradientUnits="userSpaceOnUse" id="3" xlink:href="#2"/><linearGradient id="2"><stop stop-color="#515a63"/><stop offset="1" stop-color="#474f57"/></linearGradient><linearGradient y2="12.318" x2="48.41" y1="32.21" x1="48.35" gradientTransform="matrix(.41317 0 0 1.29493 538.94 567.36)" gradientUnits="userSpaceOnUse" id="0" xlink:href="#2"/><linearGradient xlink:href="#2" id="1" x1="613.12" x2="583.12" gradientUnits="userSpaceOnUse"/></defs><g transform="translate(-553.72-583.12)"><g color="#000"><path fill="url(#0)" d="m553.72 583.12h10v26h-10z"/><rect width="30" height="30" x="583.12" y="-583.72" rx="4" transform="matrix(0 1-1 0 0 0)" fill="url(#1)"/><path fill="url(#3)" d="m573.72 583.12h10v30h-10z"/></g><path transform="matrix(0 1-1 0 0 0)" fill="#3daee9" d="m583.12-583.72h2v30h-2z"/><g transform="matrix(1.125 0 0 1.125 556.35-573.41)" fill="#f2f2f2"><path d="m3 3v1 11 1 3h1 2 8 4 1v-15-1h-16m1 1h14v14h-4-8-2v-2-1-11" transform="translate(0 1030.36)"/><path transform="matrix(.7071.70711.7071-.70711 0 0)" d="m740.39-731.9h3.243v1h-3.243z"/><path transform="matrix(.7071-.70711.7071.70711 0 0)" d="m-734.44 742.92h3.243v1h-3.243z"/><path d="m8.794 1042.86l.207-.207.207.207-.207.207z" fill-rule="evenodd"/><path d="m10 1044.36h4v1h-4z"/></g></g></svg>